<?xml version="1.0" encoding="utf-8"?>
<!-- Generator: Adobe Illustrator 17.0.0, SVG Export Plug-In . SVG Version: 6.00 Build 0)  -->
<!DOCTYPE svg PUBLIC "-//W3C//DTD SVG 1.1//EN" "http://www.w3.org/Graphics/SVG/1.1/DTD/svg11.dtd">
<svg version="1.1" id="Layer_1" focusable="false" xmlns="http://www.w3.org/2000/svg" xmlns:xlink="http://www.w3.org/1999/xlink"
	 x="0px" y="0px" width="612px" height="792px" viewBox="0 0 612 792" enable-background="new 0 0 612 792" xml:space="preserve">
<path fill="#F9B707" d="M584.03,389.067l-115.467-43.27V216.105c0-17.93-11.116-33.947-27.97-40.282l-119.531-44.824
	c-9.682-3.705-20.44-3.705-30.241,0l-119.531,44.824c-16.854,6.335-27.97,22.352-27.97,40.282v129.691l-115.467,43.27
	C11.116,395.402,0,411.42,0,429.349v131.604c0,16.256,9.204,31.198,23.787,38.489l119.531,59.766
	c12.073,6.096,26.416,6.096,38.489,0L306,597.052l124.193,62.156c12.073,6.096,26.416,6.096,38.489,0l119.531-59.766
	C602.796,592.151,612,577.209,612,560.953V429.349C612,411.42,600.884,395.402,584.03,389.067z M427.922,346.753l-101.602,38.13
	v-81.52l101.602-44.227V346.753z M184.078,214.432L306,168.771l121.922,45.661v0.717L306,264.635l-121.922-49.486
	C184.078,215.149,184.078,214.432,184.078,214.432z M284.484,562.388l-101.602,50.801v-94.549l101.602-46.378V562.388z
	 M284.484,428.513l-121.922,49.486L40.641,428.513v-0.717l121.922-45.661l121.922,45.661V428.513z M571.359,562.388l-101.602,50.801
	v-94.549l101.602-46.378V562.388z M571.359,428.513l-121.922,49.486l-121.922-49.486v-0.717l121.922-45.661l121.922,45.661V428.513z
	"/>
</svg>
